<?xml version="1.0" standalone="no"?>
<!DOCTYPE svg PUBLIC "-//W3C//DTD SVG 20010904//EN"
 "http://www.w3.org/TR/2001/REC-SVG-20010904/DTD/svg10.dtd">
<svg version="1.0" xmlns="http://www.w3.org/2000/svg"
 width="450.000000pt" height="450.000000pt" viewBox="0 0 450.000000 450.000000"
 preserveAspectRatio="xMidYMid meet">
<metadata>
Created by potrace 1.13, written by Peter Selinger 2001-2015
</metadata>
<g transform="translate(0.000000,450.000000) scale(0.100000,-0.100000)"
fill="#000000" stroke="none">
<path d="M2021 4094 c-95 -20 -165 -59 -237 -129 -290 -284 -127 -778 275
-835 275 -39 529 162 557 444 24 241 -158 481 -400 525 -75 14 -115 13 -195
-5z"/>
<path d="M1365 3536 c-219 -72 -380 -170 -518 -315 -94 -99 -152 -199 -184
-321 -27 -100 -25 -381 5 -512 27 -125 85 -298 125 -379 39 -78 99 -120 180
-127 73 -5 150 35 191 101 42 67 40 126 -6 242 -68 167 -92 282 -93 435 0 164
12 198 103 287 101 98 271 182 438 216 l66 13 -38 45 c-62 74 -134 249 -134
326 0 30 -14 29 -135 -11z"/>
<path d="M2735 3438 c-34 -106 -124 -244 -186 -289 -31 -22 -38 -39 -15 -39
34 0 200 -55 283 -95 235 -111 537 -359 758 -624 82 -98 126 -124 206 -124
141 0 238 130 199 268 -15 52 -93 149 -254 314 -290 296 -599 511 -879 610
-49 17 -90 31 -92 31 -1 0 -10 -23 -20 -52z"/>
<path d="M2200 2499 c-90 -15 -204 -57 -271 -101 -271 -175 -495 -578 -652
-1173 -25 -94 -39 -129 -48 -126 -8 2 -41 6 -74 8 -75 6 -136 -23 -179 -85
-34 -47 -46 -138 -28 -192 6 -17 69 -111 140 -208 135 -185 165 -213 244 -227
54 -10 136 17 175 57 46 49 58 81 77 203 71 444 220 911 373 1169 58 98 161
204 228 237 46 22 61 24 200 24 108 0 174 -5 235 -19 236 -51 494 -144 750
-269 126 -62 152 -71 200 -71 193 0 280 227 139 361 -19 18 -99 63 -179 101
-353 169 -690 277 -970 312 -99 12 -282 11 -360 -1z"/>
<path d="M440 1220 c-27 -27 -26 -74 2 -100 20 -19 34 -20 216 -20 l194 0 44
46 c24 25 68 56 97 69 l52 25 -292 0 c-280 0 -294 -1 -313 -20z"/>
<path d="M1847 1180 c-10 -33 -17 -64 -17 -70 0 -7 364 -10 1105 -10 1092 0
1105 0 1125 20 11 11 20 33 20 50 0 17 -9 39 -20 50 -20 20 -33 20 -1108 20
l-1089 0 -16 -60z"/>
</g>
</svg>
